<svg xmlns:xlink="http://www.w3.org/1999/xlink" xmlns="http://www.w3.org/2000/svg" viewBox="0 0 323 79" height="79" width="323" style="width: 323px; height: 79px; position: absolute; top: 50%; left: 50%; transform: translate(-50%, -50%) scale(0.494118); z-index: 0; cursor: pointer;"><defs id="SvgjsDefs1288"></defs><g id="SvgjsG1289" featurekey="symbolContainer" transform="matrix(1,0,0,1,0,0)" fill="#E51065">    <path xmlns="http://www.w3.org/2000/svg" fill-rule="nonzero" d="             M0,0             H103             V79             H0,0             z             M4,4             v71             h95             v-71             z     " fill="#E51065"></path></g><g id="SvgjsG1290" featurekey="symbolFeature-0" transform="matrix(0.6999999465942424,0,0,0.6999999465942424,17,4.2000007476806065)" fill="#E51065"><g xmlns="http://www.w3.org/2000/svg" fill="#E51065"><path fill-rule="evenodd" clip-rule="evenodd" d="M41.97,14.424C40.582,14.17,39.26,14,38.109,14   C38.964,14,40.382,14.17,41.97,14.424z M61.273,14c-1.395,0-2.898,0.188-4.413,0.473C58.545,14.188,60.146,14,61.273,14z    M15.151,27.503c0.679,0.019,1.388,0.031,2.122,0.031c5.206,0,15.151-4.849,20.606-4.849c2.055,0,4.333,0.345,6.363,0.775v-2.624   c-2.03-0.43-4.309-0.776-6.363-0.776c-5.455,0-15.4,4.849-20.606,4.849c-0.733,0-1.442-0.012-2.122-0.036V27.503z M7.879,32.831   c2.412,0.424,5.545,0.764,9.394,0.764c5.206,0,15.151-4.849,20.606-4.849c2.055,0,4.333,0.345,6.363,0.776v-2.625   c-2.03-0.43-4.309-0.775-6.363-0.775c-5.455,0-15.4,4.848-20.606,4.848c-3.849,0-6.982-0.339-9.394-0.763V32.831z M7.879,38.891   c2.412,0.424,5.545,0.764,9.394,0.764c5.206,0,15.151-4.849,20.606-4.849c2.055,0,4.333,0.345,6.363,0.776v-2.625   c-2.03-0.43-4.309-0.775-6.363-0.775c-5.455,0-15.4,4.848-20.606,4.848c-3.849,0-6.982-0.339-9.394-0.763V38.891z M7.879,44.952   c2.412,0.424,5.545,0.764,9.394,0.764c5.206,0,15.151-4.849,20.606-4.849c2.055,0,4.333,0.346,6.363,0.776v-2.625   c-2.03-0.43-4.309-0.775-6.363-0.775c-5.455,0-15.4,4.848-20.606,4.848c-3.849,0-6.982-0.339-9.394-0.763V44.952z M7.879,51.012   c2.412,0.424,5.545,0.764,9.394,0.764c5.206,0,15.151-4.848,20.606-4.848c2.055,0,4.333,0.346,6.363,0.776v-2.625   c-2.03-0.43-4.309-0.775-6.363-0.775c-5.455,0-15.4,4.849-20.606,4.849c-3.849,0-6.982-0.34-9.394-0.764V51.012z M31.515,51.551   c-5.006,1.438-10.715,3.662-14.242,3.662c-3.849,0-6.982-0.34-9.394-0.764v2.623c2.412,0.424,5.545,0.764,9.394,0.764   c3.527,0,9.236-2.225,14.242-3.66V51.551z M7.879,63.133c2.412,0.424,5.545,0.764,9.394,0.764c5.206,0,15.151-4.848,20.606-4.848   c2.055,0,4.333,0.346,6.363,0.775v-2.625c-2.03-0.43-4.309-0.775-6.363-0.775c-5.455,0-15.4,4.85-20.606,4.85   c-3.849,0-6.982-0.34-9.394-0.764V63.133z M7.879,69.193c2.412,0.424,5.545,0.764,9.394,0.764c5.206,0,15.151-4.848,20.606-4.848   c2.055,0,4.333,0.346,6.363,0.775V63.26c-2.03-0.43-4.309-0.775-6.363-0.775c-5.455,0-15.4,4.85-20.606,4.85   c-3.849,0-6.982-0.34-9.394-0.764V69.193z M90.909,26.77v-2.624c-2.412,0.424-5.546,0.764-9.394,0.764   c-5.207,0-15.152-4.849-20.606-4.849c-2.055,0-4.333,0.346-6.364,0.776v2.624c2.031-0.43,4.31-0.775,6.364-0.775   c5.454,0,15.399,4.849,20.606,4.849C85.363,27.534,88.497,27.194,90.909,26.77z M90.909,32.831v-2.624   c-2.412,0.424-5.546,0.763-9.394,0.763c-5.207,0-15.152-4.848-20.606-4.848c-2.055,0-4.333,0.345-6.364,0.775v2.625   c2.031-0.431,4.31-0.776,6.364-0.776c5.454,0,15.399,4.849,20.606,4.849C85.363,33.594,88.497,33.255,90.909,32.831z    M90.909,38.891v-2.624c-2.412,0.424-5.546,0.763-9.394,0.763c-5.207,0-15.152-4.848-20.606-4.848   c-2.055,0-4.333,0.345-6.364,0.775v2.625c2.031-0.431,4.31-0.776,6.364-0.776c5.454,0,15.399,4.849,20.606,4.849   C85.363,39.655,88.497,39.315,90.909,38.891z M60.909,38.243v2.624c5.454,0,15.399,4.849,20.606,4.849   c3.848,0,6.981-0.339,9.394-0.764v-2.624c-2.412,0.424-5.546,0.763-9.394,0.763C76.309,43.091,66.363,38.243,60.909,38.243z    M90.909,51.012v-2.624c-2.412,0.424-5.546,0.764-9.394,0.764c-5.207,0-15.152-4.849-20.606-4.849   c-2.055,0-4.333,0.345-6.364,0.775v2.625c2.031-0.43,4.31-0.776,6.364-0.776c5.454,0,15.399,4.848,20.606,4.848   C85.363,51.775,88.497,51.436,90.909,51.012z M90.909,57.072v-2.623c-2.412,0.424-5.546,0.764-9.394,0.764   c-5.207,0-15.152-4.849-20.606-4.849c-2.055,0-4.333,0.346-6.364,0.775v2.625c2.031-0.43,4.31-0.775,6.364-0.775   c5.454,0,15.399,4.848,20.606,4.848C85.363,57.836,88.497,57.496,90.909,57.072z M90.909,63.133V60.51   c-2.412,0.424-5.546,0.764-9.394,0.764c-5.207,0-15.152-4.85-20.606-4.85c-2.055,0-4.333,0.346-6.364,0.775v2.625   c2.031-0.43,4.31-0.775,6.364-0.775c5.454,0,15.399,4.848,20.606,4.848C85.363,63.896,88.497,63.557,90.909,63.133z M73.939,68.363   V65.74c-4.612-1.42-9.673-3.256-13.03-3.256c-2.055,0-4.333,0.346-6.364,0.775v2.625c2.031-0.43,4.31-0.775,6.364-0.775   C64.267,65.109,69.327,66.951,73.939,68.363z M38.109,14c-6.061,0-14.545,4.849-21.976,4.849c-4.545,0-9.842-0.758-14.242-2.273   v9.606C0.812,26.418,0,27.388,0,28.545v55.757c0,1.34,1.085,2.424,2.424,2.424h38.788c0.667,0,1.212-0.545,1.212-1.211l2.424,1.211   h10.303l2.425-1.211c0,0.666,0.545,1.211,1.212,1.211h38.788c1.339,0,2.424-1.084,2.424-2.424V28.545   c0-1.339-1.085-2.424-2.424-2.424h-0.073v-9.546c-4.546,1.515-9.854,2.273-14.242,2.273c-0.46,0-2.582,0-3.637-0.303   c-2.425-0.455-5.006-1.212-7.127-1.97C68.715,15.515,64.775,14,61.285,14h-0.012c-1.128,0-2.729,0.188-4.413,0.473   c-2.702,0.461-5.624,1.17-7.157,1.728c-1.57-0.582-4.909-1.321-7.733-1.776C40.382,14.17,38.964,14,38.109,14z M48.412,17.788   v53.636c-2.121-0.758-7.733-1.818-10.46-1.818c-6.061,0-15.297,4.85-21.818,4.85c-4.085,0-8.63-0.455-12.424-1.818V19.152   c3.939,1.061,8.788,1.667,12.728,1.667c6.364,0,15.915-4.849,21.672-4.849c1.212,0,2.667,0.169,4.146,0.418   C44.376,16.77,46.497,17.333,48.412,17.788z M48.412,73.314v1.746c-2.121-0.758-7.733-1.818-10.46-1.818   c-6.061,0-15.297,4.85-21.818,4.85c-4.085,0-8.63-0.455-12.424-1.818v-1.758c4.14,1.109,8.794,1.908,12.885,1.908   c6.207,0,15.152-4.848,21.515-4.848C41.509,71.576,44.679,72.254,48.412,73.314z M48.412,76.951v1.746   c-2.121-0.758-7.733-1.818-10.46-1.818c-6.061,0-15.297,4.848-21.818,4.848c-4.085,0-8.63-0.453-12.424-1.816v-1.758   c4.14,1.107,8.794,1.908,12.885,1.908c6.97,0,14.388-4.848,21.515-4.848C41.509,75.213,44.679,75.891,48.412,76.951z    M82.801,20.818c3.793,0,9.854-0.909,12.884-1.667v53.485C91.745,74,87.2,74.455,83.104,74.455c-6.971,0-15.455-4.85-21.818-4.85   c-2.57,0-8.328,1.061-10.303,1.818V17.788c1.908-0.455,3.987-1.019,6.054-1.4c1.448-0.249,2.873-0.418,4.079-0.418h0.023   C66.896,15.97,76.437,20.818,82.801,20.818z M95.685,74.504v1.77c-3.939,1.363-8.484,1.818-12.581,1.818   c-6.971,0-15.455-4.85-21.818-4.85c-2.57,0-8.328,1.061-10.303,1.818v-1.758c3.611-1.055,6.77-1.727,10.156-1.727   c6.364,0,15.298,4.848,21.662,4.848C86.77,76.424,91.437,75.619,95.685,74.504z M95.685,78.139v1.771   c-3.939,1.363-8.484,1.816-12.581,1.816c-6.971,0-15.455-4.848-21.818-4.848c-2.57,0-8.328,1.061-10.303,1.818v-1.758   c3.611-1.055,6.77-1.727,10.156-1.727c7.115,0,14.691,4.848,21.662,4.848C86.77,80.061,91.437,79.254,95.685,78.139z" fill="#E51065"></path></g></g><g id="SvgjsG1291" featurekey="nameFeature-0" transform="matrix(0.8074935639303112,0,0,0.8074935639303112,121.70801027845935,17.37856140073322)" fill="#000000"><path d="M1.6 40 l0 -31.2 l13.76 0 c3.92 0 6.96 1 9.08 3 c2.12 2.04 3.16 4.56 3.16 7.48 c0 3.08 -1.04 5.64 -3.16 7.64 s-5.12 3.04 -9.08 3.04 l-5.76 0 l0 10.04 l-8 0 z M9.6 23.56 l5.32 0 c3.08 0 4.6 -1.4 4.6 -4.24 c0 -1.2 -0.36 -2.16 -1.12 -2.96 s-1.92 -1.16 -3.48 -1.16 l-5.32 0 l0 8.36 z M33.92 36.72 c2.28 2.44 5.36 3.28 8.72 3.28 c1.8 0 3.68 -0.28 5.36 -1 l0 1 l6.48 0 l0 -23.2 l-7.12 0 l0 11.2 c0 3.12 -1.32 5.16 -4.72 5.16 c-3.44 0 -4.68 -2.08 -4.68 -5.16 l0 -11.2 l-7.16 0 l0 11.56 c0 3.08 0.88 6 3.12 8.36 z M57.68 40.04 l6.48 0 l0 -6.8 l1.04 -1.16 l5.84 7.92 l7.92 0 l-9.4 -12.68 l9.88 -10.52 l-8.24 0 l-7.12 7.72 l0 -15.72 l-6.36 0 z M80.92 12.399999999999999 c0 1.88 1.52 3.56 3.64 3.56 c2.08 0 3.68 -1.68 3.68 -3.56 c0 -1.84 -1.6 -3.64 -3.68 -3.64 c-2.12 0 -3.64 1.8 -3.64 3.64 z M81.32000000000001 16.84 l0 23.16 l6.48 0 l0 -23.16 l-6.48 0 z M92.64 22.72 l-1.2 -13.92 l7.76 0 l-1.2 13.92 l-5.36 0 z M102.44000000000001 32.96 c0 5.6 7.08 7.04 11.4 7.04 c4.28 0 10.68 -1.4 10.68 -6.8 c0 -1.64 -0.48 -2.44 -1.44 -3.64 c-0.8 -1.04 -2 -1.8 -3.12 -2.36 c-0.84 -0.44 -1.76 -0.8 -2.68 -1.08 c-0.92 -0.32 -1.84 -0.56 -2.72 -0.88 c-0.48 -0.16 -1.08 -0.32 -1.72 -0.56 c-0.6 -0.2 -1.2 -0.4 -1.56 -0.6 c-0.2 -0.12 -0.4 -0.24 -0.56 -0.36 s-0.2 -0.24 -0.2 -0.36 c0 -0.32 0.32 -0.6 0.96 -0.84 c0.64 -0.2 1.36 -0.28 1.8 -0.28 c0.68 0 1.6 0.16 2.36 0.48 c0.76 0.36 1.24 0.84 1.24 1.48 l0 1.04 l7.28 -0.04 l0 -1.12 c0 -2.36 -1.28 -4.08 -3.2 -5.36 c-2.36 -1.52 -5.04 -2 -7.8 -2 c-4.32 0 -10.52 1.8 -10.52 7.08 c0 0.92 0.24 1.8 0.72 2.6 c0.4 0.64 0.92 1.36 1.56 1.88 c1.32 1.04 3.32 1.88 4.92 2.4 c0.84 0.28 1.76 0.48 2.6 0.8 c0.48 0.16 1.12 0.32 1.76 0.52 c0.64 0.24 1.2 0.44 1.64 0.64 c0.44 0.24 0.72 0.52 0.72 0.84 c0 0.36 -0.28 0.6 -1 0.8 c-0.64 0.16 -1.4 0.16 -1.84 0.16 c-1 0 -2.28 -0.12 -3.04 -0.56 c-0.24 -0.12 -0.48 -0.32 -0.68 -0.52 s-0.32 -0.36 -0.32 -0.52 l-0.04 -1.4 l-7.24 0 l0 0.16 c0.04 0.44 0.04 0.88 0.04 1.36 z M155 40.6 c-3.88 0 -7.04 -0.84 -9.52 -2.56 s-3.72 -4.04 -3.72 -7.04 l0 -0.36 l-0.04 -1.6 l7.84 0 l0 1.8 c0 0.68 0.48 1.32 1.4 1.92 s2.2 0.92 3.88 0.92 c1.4 0 2.4 -0.2 3.04 -0.56 c0.6 -0.36 0.92 -0.84 0.92 -1.36 c0 -0.64 -0.4 -1.2 -1.16 -1.68 c-0.8 -0.48 -2.2 -1.04 -4.16 -1.72 c-1.24 -0.44 -2.28 -0.8 -3.12 -1.12 s-1.84 -0.8 -3 -1.44 c-1.16 -0.6 -2.12 -1.28 -2.8 -1.96 s-1.28 -1.52 -1.8 -2.56 s-0.76 -2.16 -0.76 -3.4 c0 -2.92 1.12 -5.28 3.4 -7.04 s5.2 -2.64 8.8 -2.64 c3.72 0 6.76 0.92 9.16 2.76 s3.6 4.28 3.6 7.32 l0 1.96 l-7.8 0 l0 -1.8 c0 -0.84 -0.4 -1.64 -1.24 -2.32 s-2.04 -1 -3.56 -1 c-1.24 0 -2.2 0.2 -2.84 0.6 c-0.64 0.44 -0.96 0.92 -0.96 1.52 s0.36 1.08 1.08 1.48 c0.72 0.44 2.08 1 4.08 1.68 l2.04 0.72 l2.16 0.88 c0.92 0.44 1.68 0.8 2.24 1.16 s1.2 0.84 1.96 1.44 s1.32 1.24 1.76 1.84 c0.4 0.6 0.76 1.36 1.08 2.2 c0.28 0.84 0.44 1.76 0.44 2.68 c0 2.96 -1.16 5.24 -3.44 6.84 c-2.28 1.64 -5.28 2.44 -8.96 2.44 z M170.64 9.16 c0 10 -0.04 20.48 -0.04 30.48 l0 0.36 l6.48 0 l0 -11.84 c0 -2.88 2.52 -5.4 5.6 -5.4 c2.96 0 5.28 2.28 5.6 5 c0.04 0.4 0 0.84 0 1.24 l0.04 2.92 l0 8 l6.48 0.08 l0 -12.04 c0 -2.92 -1.48 -5.8 -3.6 -7.84 c-2.32 -2.24 -5.16 -3.44 -8.52 -3.44 c-2 0 -3.92 0.44 -5.68 1.32 l0 -9.2 l-6.36 0 l0 0.36 z M198 28.36 c0 6.2 5.24 11.56 11.96 11.56 c6.68 0 11.92 -5.36 11.92 -11.56 c0 -6.16 -5.24 -11.52 -11.92 -11.52 c-6.72 0 -11.96 5.36 -11.96 11.52 z M215.48000000000002 28.36 c0 3 -2.32 5.52 -5.52 5.52 s-5.56 -2.56 -5.56 -5.52 c0 -2.92 2.36 -5.48 5.56 -5.48 s5.52 2.52 5.52 5.48 z M237.16000000000003 16.48 c6.8 0 12.12 5.4 12.12 11.68 c0 6.24 -5.32 11.64 -12.12 11.64 c-2 0 -3.92 -0.44 -5.68 -1.32 l0 8.72 l-6.36 0 l0 -30.4 l6.48 0 l0 0.92 c1.72 -0.84 3.6 -1.24 5.56 -1.24 z M237.16000000000003 33.72 c3.2 0 5.64 -2.64 5.64 -5.56 c0 -2.96 -2.44 -5.6 -5.64 -5.6 c-1.56 0 -2.88 0.56 -3.96 1.6 c-0.8 0.8 -1.6 2.24 -1.6 3.28 l0 1.4 c0 1.04 0.8 2.44 1.6 3.24 c1.08 1.04 2.4 1.64 3.96 1.64 z"></path></g></svg>