<svg xmlns:xlink="http://www.w3.org/1999/xlink" xmlns="http://www.w3.org/2000/svg" viewBox="0 0 312.5 313.25072965234256" preserveAspectRatio="xMidYMid meet" class="css-ata32y" id="geefffhc" width="312.5"  height="313.25072965234256" ><defs id="SvgjsDefs1258"></defs><g id="SvgjsG1259" featurekey="rootContainer" transform="matrix(2.9031579923244926,0,0,2.9031579923244926,0,0)" fill="#111111"><path xmlns="http://www.w3.org/2000/svg" d="M4.6 5.1h98.3v24.1c.1 2.9.1 6 .2 8.1s.1 1 .1.8a61.5 61.5 0 0 0 .3-6.7v-4.2c.1-6.7 0-13.5 0-20.2V4.3H4.6V.8h102.3v24.1c.1 2.9.1 6 .2 8.1s.1 1 .1.8a61.5 61.5 0 0 0 .3-6.7v-4.2c.1-6.7 0-13.5 0-20.2V0H4v4.5H0v47.1c.1 2.7.1 5.8 0 8.7v47.6h43.5l16.7-.2h10.9a64.7 64.7 0 0 0 8.1-.3H.7V36.7C.6 31.5.6 26.3.6 21V5.1H4v42.1c-.1 2.7-.1 5.8-.1 8.8v47.6h43.6l16.7-.2h10.9a64.7 64.7 0 0 0 8.1-.3H4.7V16.7c0-5.3-.1-7.7-.1-11.6zm103 53.2v-4.7l-.2-7.8c-.1-3.2-.2-3.8-.3-3.8 0 1.9-.1 3.9-.1 5.9v17.3c0 3.1 0 6.3-.1 9.2v15.7c0 3.3 0 6.3.1 9.3v3.9l-1.9-.2h-1.7q.1-2.4.1-5.2V73.6c0-3.5.1-6.9.1-10.8v-4.7l-.2-7.8c-.1-3.2-.2-3.8-.3-3.8 0 1.9-.1 3.9-.1 5.9v17.3c0 3.1 0 6.3-.1 9.2v15.7c0 3.3 0 5.8.1 8.5H92.4c-.4.1-1.3.1-.9.1l3.5.2h8v4.2l-1.9-.2H88.4c-.4.1-1.3.1-.9.1l3.5.2h12.1c.1.3.1.1.2-1.2s.1-2 .1-3h3.7c.1.3.1.1.2-1.2s.1-5.3.2-8.7V69.3c.1-3.8.2-7.2.1-11z" fill="#111111"></path></g><g id="SvgjsG1260" featurekey="symbolFeature-0" transform="matrix(0.9000156815400139,0,0,0.9000156815400139,111,81.3997804584398)" fill="#111111"><g xmlns="http://www.w3.org/2000/svg" fill="#111111"><path fill-rule="evenodd" clip-rule="evenodd" d="M41.97,14.424C40.582,14.17,39.26,14,38.109,14   C38.964,14,40.382,14.17,41.97,14.424z M61.273,14c-1.395,0-2.898,0.188-4.413,0.473C58.545,14.188,60.146,14,61.273,14z    M15.151,27.503c0.679,0.019,1.388,0.031,2.122,0.031c5.206,0,15.151-4.849,20.606-4.849c2.055,0,4.333,0.345,6.363,0.775v-2.624   c-2.03-0.43-4.309-0.776-6.363-0.776c-5.455,0-15.4,4.849-20.606,4.849c-0.733,0-1.442-0.012-2.122-0.036V27.503z M7.879,32.831   c2.412,0.424,5.545,0.764,9.394,0.764c5.206,0,15.151-4.849,20.606-4.849c2.055,0,4.333,0.345,6.363,0.776v-2.625   c-2.03-0.43-4.309-0.775-6.363-0.775c-5.455,0-15.4,4.848-20.606,4.848c-3.849,0-6.982-0.339-9.394-0.763V32.831z M7.879,38.891   c2.412,0.424,5.545,0.764,9.394,0.764c5.206,0,15.151-4.849,20.606-4.849c2.055,0,4.333,0.345,6.363,0.776v-2.625   c-2.03-0.43-4.309-0.775-6.363-0.775c-5.455,0-15.4,4.848-20.606,4.848c-3.849,0-6.982-0.339-9.394-0.763V38.891z M7.879,44.952   c2.412,0.424,5.545,0.764,9.394,0.764c5.206,0,15.151-4.849,20.606-4.849c2.055,0,4.333,0.346,6.363,0.776v-2.625   c-2.03-0.43-4.309-0.775-6.363-0.775c-5.455,0-15.4,4.848-20.606,4.848c-3.849,0-6.982-0.339-9.394-0.763V44.952z M7.879,51.012   c2.412,0.424,5.545,0.764,9.394,0.764c5.206,0,15.151-4.848,20.606-4.848c2.055,0,4.333,0.346,6.363,0.776v-2.625   c-2.03-0.43-4.309-0.775-6.363-0.775c-5.455,0-15.4,4.849-20.606,4.849c-3.849,0-6.982-0.34-9.394-0.764V51.012z M31.515,51.551   c-5.006,1.438-10.715,3.662-14.242,3.662c-3.849,0-6.982-0.34-9.394-0.764v2.623c2.412,0.424,5.545,0.764,9.394,0.764   c3.527,0,9.236-2.225,14.242-3.66V51.551z M7.879,63.133c2.412,0.424,5.545,0.764,9.394,0.764c5.206,0,15.151-4.848,20.606-4.848   c2.055,0,4.333,0.346,6.363,0.775v-2.625c-2.03-0.43-4.309-0.775-6.363-0.775c-5.455,0-15.4,4.85-20.606,4.85   c-3.849,0-6.982-0.34-9.394-0.764V63.133z M7.879,69.193c2.412,0.424,5.545,0.764,9.394,0.764c5.206,0,15.151-4.848,20.606-4.848   c2.055,0,4.333,0.346,6.363,0.775V63.26c-2.03-0.43-4.309-0.775-6.363-0.775c-5.455,0-15.4,4.85-20.606,4.85   c-3.849,0-6.982-0.34-9.394-0.764V69.193z M90.909,26.77v-2.624c-2.412,0.424-5.546,0.764-9.394,0.764   c-5.207,0-15.152-4.849-20.606-4.849c-2.055,0-4.333,0.346-6.364,0.776v2.624c2.031-0.43,4.31-0.775,6.364-0.775   c5.454,0,15.399,4.849,20.606,4.849C85.363,27.534,88.497,27.194,90.909,26.77z M90.909,32.831v-2.624   c-2.412,0.424-5.546,0.763-9.394,0.763c-5.207,0-15.152-4.848-20.606-4.848c-2.055,0-4.333,0.345-6.364,0.775v2.625   c2.031-0.431,4.31-0.776,6.364-0.776c5.454,0,15.399,4.849,20.606,4.849C85.363,33.594,88.497,33.255,90.909,32.831z    M90.909,38.891v-2.624c-2.412,0.424-5.546,0.763-9.394,0.763c-5.207,0-15.152-4.848-20.606-4.848   c-2.055,0-4.333,0.345-6.364,0.775v2.625c2.031-0.431,4.31-0.776,6.364-0.776c5.454,0,15.399,4.849,20.606,4.849   C85.363,39.655,88.497,39.315,90.909,38.891z M60.909,38.243v2.624c5.454,0,15.399,4.849,20.606,4.849   c3.848,0,6.981-0.339,9.394-0.764v-2.624c-2.412,0.424-5.546,0.763-9.394,0.763C76.309,43.091,66.363,38.243,60.909,38.243z    M90.909,51.012v-2.624c-2.412,0.424-5.546,0.764-9.394,0.764c-5.207,0-15.152-4.849-20.606-4.849   c-2.055,0-4.333,0.345-6.364,0.775v2.625c2.031-0.43,4.31-0.776,6.364-0.776c5.454,0,15.399,4.848,20.606,4.848   C85.363,51.775,88.497,51.436,90.909,51.012z M90.909,57.072v-2.623c-2.412,0.424-5.546,0.764-9.394,0.764   c-5.207,0-15.152-4.849-20.606-4.849c-2.055,0-4.333,0.346-6.364,0.775v2.625c2.031-0.43,4.31-0.775,6.364-0.775   c5.454,0,15.399,4.848,20.606,4.848C85.363,57.836,88.497,57.496,90.909,57.072z M90.909,63.133V60.51   c-2.412,0.424-5.546,0.764-9.394,0.764c-5.207,0-15.152-4.85-20.606-4.85c-2.055,0-4.333,0.346-6.364,0.775v2.625   c2.031-0.43,4.31-0.775,6.364-0.775c5.454,0,15.399,4.848,20.606,4.848C85.363,63.896,88.497,63.557,90.909,63.133z M73.939,68.363   V65.74c-4.612-1.42-9.673-3.256-13.03-3.256c-2.055,0-4.333,0.346-6.364,0.775v2.625c2.031-0.43,4.31-0.775,6.364-0.775   C64.267,65.109,69.327,66.951,73.939,68.363z M38.109,14c-6.061,0-14.545,4.849-21.976,4.849c-4.545,0-9.842-0.758-14.242-2.273   v9.606C0.812,26.418,0,27.388,0,28.545v55.757c0,1.34,1.085,2.424,2.424,2.424h38.788c0.667,0,1.212-0.545,1.212-1.211l2.424,1.211   h10.303l2.425-1.211c0,0.666,0.545,1.211,1.212,1.211h38.788c1.339,0,2.424-1.084,2.424-2.424V28.545   c0-1.339-1.085-2.424-2.424-2.424h-0.073v-9.546c-4.546,1.515-9.854,2.273-14.242,2.273c-0.46,0-2.582,0-3.637-0.303   c-2.425-0.455-5.006-1.212-7.127-1.97C68.715,15.515,64.775,14,61.285,14h-0.012c-1.128,0-2.729,0.188-4.413,0.473   c-2.702,0.461-5.624,1.17-7.157,1.728c-1.57-0.582-4.909-1.321-7.733-1.776C40.382,14.17,38.964,14,38.109,14z M48.412,17.788   v53.636c-2.121-0.758-7.733-1.818-10.46-1.818c-6.061,0-15.297,4.85-21.818,4.85c-4.085,0-8.63-0.455-12.424-1.818V19.152   c3.939,1.061,8.788,1.667,12.728,1.667c6.364,0,15.915-4.849,21.672-4.849c1.212,0,2.667,0.169,4.146,0.418   C44.376,16.77,46.497,17.333,48.412,17.788z M48.412,73.314v1.746c-2.121-0.758-7.733-1.818-10.46-1.818   c-6.061,0-15.297,4.85-21.818,4.85c-4.085,0-8.63-0.455-12.424-1.818v-1.758c4.14,1.109,8.794,1.908,12.885,1.908   c6.207,0,15.152-4.848,21.515-4.848C41.509,71.576,44.679,72.254,48.412,73.314z M48.412,76.951v1.746   c-2.121-0.758-7.733-1.818-10.46-1.818c-6.061,0-15.297,4.848-21.818,4.848c-4.085,0-8.63-0.453-12.424-1.816v-1.758   c4.14,1.107,8.794,1.908,12.885,1.908c6.97,0,14.388-4.848,21.515-4.848C41.509,75.213,44.679,75.891,48.412,76.951z    M82.801,20.818c3.793,0,9.854-0.909,12.884-1.667v53.485C91.745,74,87.2,74.455,83.104,74.455c-6.971,0-15.455-4.85-21.818-4.85   c-2.57,0-8.328,1.061-10.303,1.818V17.788c1.908-0.455,3.987-1.019,6.054-1.4c1.448-0.249,2.873-0.418,4.079-0.418h0.023   C66.896,15.97,76.437,20.818,82.801,20.818z M95.685,74.504v1.77c-3.939,1.363-8.484,1.818-12.581,1.818   c-6.971,0-15.455-4.85-21.818-4.85c-2.57,0-8.328,1.061-10.303,1.818v-1.758c3.611-1.055,6.77-1.727,10.156-1.727   c6.364,0,15.298,4.848,21.662,4.848C86.77,76.424,91.437,75.619,95.685,74.504z M95.685,78.139v1.771   c-3.939,1.363-8.484,1.816-12.581,1.816c-6.971,0-15.455-4.848-21.818-4.848c-2.57,0-8.328,1.061-10.303,1.818v-1.758   c3.611-1.055,6.77-1.727,10.156-1.727c7.115,0,14.691,4.848,21.662,4.848C86.77,80.061,91.437,79.254,95.685,78.139z" fill="#111111"></path></g></g><g id="SvgjsG1261" featurekey="nameFeature-0" transform="matrix(0.5910689567221648,0,0,0.5910689567221648,54.1085805786011,178.69264415377822)" fill="#111111"><path d="M22.8 7.039999999999999 c2.72 0 4.68 0.84 5.88 2.56 c1.16 1.6 1.72 3.92 1.76 7 c0 3.16 -0.56 5.56 -1.76 7.24 s-3.16 2.52 -5.88 2.52 l-13.68 0.04 l0 12.24 c0 1.24 -0.8 1.4 -1.12 1.4 l-3.68 0 c-0.32 0 -1.12 -0.16 -1.12 -1.4 l0 -16.8 c0 -1.24 0.8 -1.36 1.12 -1.36 l17.44 0 c1 0 1.72 -0.28 2.12 -0.88 c0.44 -0.6 0.64 -1.56 0.64 -2.88 s-0.2 -2.28 -0.64 -2.88 c-0.4 -0.6 -1.12 -0.88 -2.12 -0.88 l-17.44 0 c-0.32 0 -1.12 -0.12 -1.12 -1.36 l0 -3.16 c0 -1.28 0.8 -1.4 1.12 -1.4 l18.48 0 z M67.609 7.039999999999999 c0.36 0 1.12 0.12 1.12 1.36 l0 19.08 c0 2.24 -0.16 4.16 -0.52 5.72 c-0.36 1.6 -0.92 2.92 -1.72 3.92 c-0.8 1.04 -1.84 1.76 -3.12 2.24 c-1.24 0.44 -2.76 0.64 -4.52 0.64 l-9 0 c-1.76 0 -3.28 -0.2 -4.52 -0.64 c-1.24 -0.48 -2.32 -1.2 -3.08 -2.24 c-0.8 -1 -1.4 -2.32 -1.76 -3.92 c-0.36 -1.56 -0.52 -3.48 -0.52 -5.72 l0 -19.08 c0 -1.24 0.8 -1.36 1.16 -1.36 l3.64 0 c0.36 0 1.12 0.12 1.12 1.36 l0 19.72 c0 1.2 0.08 2.24 0.2 3 c0.16 0.76 0.4 1.36 0.68 1.8 c0.32 0.4 0.68 0.68 1.2 0.88 c0.52 0.16 1.24 0.28 2.08 0.28 l8.64 0 c0.84 0 1.56 -0.12 2.08 -0.28 c0.52 -0.2 0.88 -0.48 1.2 -0.88 c0.28 -0.44 0.52 -1.04 0.64 -1.8 s0.2 -1.8 0.2 -3 l0 -19.72 c0 -1.24 0.76 -1.36 1.12 -1.36 l3.68 0 z M97.41799999999999 26.28 l6.92 12 c0.16 0.2 0.2 0.52 0.16 0.92 c-0.04 0.52 -0.36 0.84 -0.92 0.84 l-4.32 0 c-0.4 0 -0.68 -0.08 -0.84 -0.24 c-0.16 -0.12 -0.32 -0.32 -0.44 -0.56 l-6.24 -10.96 c-0.44 -0.8 -0.88 -1.32 -1.32 -1.56 c-0.48 -0.28 -1.2 -0.4 -2.16 -0.4 l-4.04 0 l0 12.32 c0 1.24 -0.8 1.4 -1.12 1.4 l-3.68 0 c-0.32 0 -1.16 -0.16 -1.16 -1.4 l0 -30.2 c0 -1.28 0.84 -1.4 1.16 -1.4 l3.68 0 c0.32 0 1.12 0.12 1.12 1.4 l0 11.96 l3.68 0 c0.52 0 0.96 -0.04 1.28 -0.08 s0.6 -0.12 0.84 -0.24 c0.2 -0.12 0.44 -0.32 0.64 -0.56 c0.2 -0.28 0.44 -0.6 0.68 -1 l6.04 -10.68 c0.12 -0.28 0.28 -0.44 0.44 -0.56 c0.16 -0.16 0.44 -0.24 0.88 -0.24 l3.96 0 c0.48 0 0.8 0.24 0.92 0.68 c0.04 0.36 0 0.68 -0.12 0.96 l-6.6 11.6 l-1.08 1.8 l-0.76 1.04 c0.8 0.76 1.6 1.84 2.4 3.16 z M118.86699999999999 7.039999999999999 c0.32 0 1.12 0.16 1.12 1.4 l0 30.2 c0 1.24 -0.8 1.4 -1.12 1.4 l-3.68 0 c-0.32 0 -1.12 -0.16 -1.12 -1.4 l0 -30.2 c0 -1.24 0.8 -1.4 1.12 -1.4 l3.68 0 z M133.676 0.5200000000000031 c0.88 0 1.56 0.68 1.56 1.56 l0 2.6 c0 0.2 -0.04 0.4 -0.08 0.56 l-1.12 4.08 c-0.08 0.4 -0.44 0.68 -0.88 0.68 c-0.52 0 -0.92 -0.4 -0.92 -0.92 l0 -2.84 l-1.16 0 c-0.84 0 -1.56 -0.68 -1.56 -1.56 l0 -2.6 c0 -0.88 0.72 -1.56 1.56 -1.56 l2.6 0 z M164.085 20.32 c2.08 0 3.68 0.76 4.76 2.2 c1.04 1.44 1.56 3.48 1.56 6.08 l0 3.52 c0 2.32 -0.52 4.2 -1.52 5.64 c-1.04 1.48 -2.68 2.24 -4.88 2.24 l-18.04 0 c-0.36 0 -1.16 -0.12 -1.16 -1.36 l0 -3.2 c0 -1.24 0.8 -1.36 1.16 -1.36 l17.08 0 c0.68 0 0.92 -0.28 1.08 -0.52 c0.24 -0.4 0.36 -0.96 0.36 -1.68 l0 -3.44 c0 -1.96 -0.8 -2.2 -1.4 -2.2 l-12 0 c-1.68 0 -3.52 -0.24 -4.76 -1.88 c-1 -1.4 -1.56 -3.64 -1.56 -6.4 l0 -3.04 c0 -2.32 0.52 -4.24 1.56 -5.68 c1.04 -1.48 2.64 -2.2 4.84 -2.2 l17.24 0 c0.32 0 1.12 0.12 1.12 1.36 l0 3.2 c0 1.24 -0.8 1.36 -1.12 1.36 l-16.28 0 c-0.68 0 -0.92 0.28 -1.08 0.52 c-0.2 0.4 -0.32 0.96 -0.32 1.68 l0 2.96 c0 1.96 0.76 2.2 1.36 2.2 l12 0 z M222.94299999999998 20.32 c2.08 0 3.68 0.76 4.76 2.2 c1.04 1.44 1.56 3.48 1.56 6.08 l0 3.52 c0 2.32 -0.52 4.2 -1.52 5.64 c-1.04 1.48 -2.68 2.24 -4.88 2.24 l-18.04 0 c-0.36 0 -1.16 -0.12 -1.16 -1.36 l0 -3.2 c0 -1.24 0.8 -1.36 1.16 -1.36 l17.08 0 c0.68 0 0.92 -0.28 1.08 -0.52 c0.24 -0.4 0.36 -0.96 0.36 -1.68 l0 -3.44 c0 -1.96 -0.8 -2.2 -1.4 -2.2 l-12 0 c-1.68 0 -3.52 -0.24 -4.76 -1.88 c-1 -1.4 -1.56 -3.64 -1.56 -6.4 l0 -3.04 c0 -2.32 0.52 -4.24 1.56 -5.68 c1.04 -1.48 2.64 -2.2 4.84 -2.2 l17.24 0 c0.32 0 1.12 0.12 1.12 1.36 l0 3.2 c0 1.24 -0.8 1.36 -1.12 1.36 l-16.28 0 c-0.68 0 -0.92 0.28 -1.08 0.52 c-0.2 0.4 -0.32 0.96 -0.32 1.68 l0 2.96 c0 1.96 0.76 2.2 1.36 2.2 l12 0 z M264.632 7.039999999999999 c0.36 0 1.16 0.16 1.16 1.4 l0 30.2 c0 1.24 -0.8 1.4 -1.16 1.4 l-3.68 0 c-0.32 0 -1.08 -0.16 -1.08 -1.4 l0 -12.32 l-15.16 0 l0 12.32 c0 1.24 -0.76 1.4 -1.12 1.4 l-3.64 0 c-0.36 0 -1.16 -0.16 -1.16 -1.4 l0 -30.2 c0 -1.24 0.8 -1.4 1.16 -1.4 l3.64 0 c0.36 0 1.12 0.16 1.12 1.4 l0 11.96 l15.16 0 l0 -11.96 c0 -1.24 0.76 -1.4 1.08 -1.4 l3.68 0 z M302.561 9.96 c0.8 1 1.36 2.32 1.72 3.92 c0.32 1.56 0.52 3.48 0.52 5.68 l0 7.92 c0 2.24 -0.2 4.16 -0.52 5.72 c-0.36 1.6 -0.92 2.92 -1.72 3.96 c-0.8 1 -1.84 1.76 -3.12 2.2 c-1.24 0.44 -2.76 0.68 -4.52 0.68 l-9.76 0 c-1.76 0 -3.28 -0.24 -4.48 -0.68 c-1.28 -0.44 -2.32 -1.2 -3.12 -2.24 c-0.76 -1 -1.36 -2.32 -1.72 -3.92 c-0.36 -1.56 -0.52 -3.48 -0.52 -5.72 l0 -7.92 c0 -2.24 0.16 -4.12 0.52 -5.68 c0.36 -1.6 0.96 -2.92 1.72 -3.92 c0.8 -1 1.84 -1.76 3.12 -2.24 c1.24 -0.44 2.72 -0.68 4.48 -0.68 l9.76 0 c1.76 0 3.28 0.24 4.52 0.68 c1.28 0.48 2.32 1.24 3.12 2.24 z M298.841 18.88 c0 -1.16 -0.04 -2.16 -0.2 -2.96 c-0.12 -0.76 -0.36 -1.36 -0.68 -1.8 c-0.28 -0.4 -0.68 -0.68 -1.2 -0.88 c-0.52 -0.16 -1.2 -0.28 -2.04 -0.28 l-9.36 0 c-0.84 0 -1.52 0.12 -2.04 0.28 c-0.52 0.2 -0.92 0.48 -1.2 0.88 c-0.32 0.44 -0.52 1.04 -0.68 1.8 c-0.12 0.8 -0.2 1.8 -0.2 2.96 l0 9.32 c0 1.16 0.08 2.16 0.2 2.96 c0.16 0.72 0.36 1.36 0.68 1.76 c0.28 0.44 0.68 0.72 1.2 0.88 c0.52 0.2 1.2 0.28 2.04 0.28 l9.36 0 c0.84 0 1.52 -0.08 2.04 -0.28 c0.52 -0.16 0.92 -0.44 1.2 -0.88 c0.32 -0.4 0.56 -1.04 0.68 -1.76 c0.16 -0.8 0.2 -1.8 0.2 -2.96 l0 -9.32 z M333.93 7.039999999999999 c2.72 0 4.68 0.84 5.88 2.56 c1.16 1.6 1.72 3.92 1.76 7 c0 3.16 -0.56 5.56 -1.76 7.24 s-3.16 2.52 -5.88 2.52 l-13.68 0.04 l0 12.24 c0 1.24 -0.8 1.4 -1.12 1.4 l-3.68 0 c-0.32 0 -1.12 -0.16 -1.12 -1.4 l0 -16.8 c0 -1.24 0.8 -1.36 1.12 -1.36 l17.44 0 c1 0 1.72 -0.28 2.12 -0.88 c0.44 -0.6 0.64 -1.56 0.64 -2.88 s-0.2 -2.28 -0.64 -2.88 c-0.4 -0.6 -1.12 -0.88 -2.12 -0.88 l-17.44 0 c-0.32 0 -1.12 -0.12 -1.12 -1.36 l0 -3.16 c0 -1.28 0.8 -1.4 1.12 -1.4 l18.48 0 z" fill="#111111"></path></g><g id="SvgjsG1262" featurekey="sloganFeature-0" transform="matrix(0.6174459824302128,0,0,0.6174459824302128,89.96908921675792,206.78572716220157)" fill="#111111"><path d="M17.43 17.65 l0.040136 2.3242 l-1.1621 0.02002 c-0.015039 0.0002539 -1.0275 0.017129 -3.0076 0.017129 c-1.0032 0 -2.2546 -0.0044532 -3.7506 -0.017402 c-2.4132 -0.021054 -4.3428 -0.54212 -5.7348 -1.549 c-1.3835 -1.0007 -2.1454 -2.4562 -2.1454 -4.0986 c0 -1.6413 0.76854 -3.1002 2.164 -4.1074 c1.383 -0.99846 3.3616 -1.531 5.7218 -1.5402 c4.441 -0.017129 6.719 0.00027344 6.7416 0.00041016 l1.1622 0.0091602 l-0.01832 2.3246 l-1.1622 -0.0091602 c-0.022364 -0.0002539 -2.2892 -0.01752 -6.7144 -0.00039062 c-3.4358 0.01334 -5.5702 1.2866 -5.5702 3.3232 c0 0.90194 0.39812 1.6473 1.1831 2.215 c0.97936 0.70836 2.4984 1.0916 4.3926 1.1081 c4.4144 0.038574 6.6758 0.00089844 6.698 0.00050782 z M23.1538 20.02461 l-2.3246 0 l0 -11.295 l2.3246 0 l0 11.295 z M26.5092 8.475 l15.938 0 l0 2.3477 l-6.7954 0 l0 9.0932 l-2.3476 0 l0 -9.0932 l-6.7946 0 l0 -2.3477 z M61.730000000000004 8.445 l0.016758 1.1737 c0.01832 1.2629 -0.49072 2.489 -1.4333 3.4524 c-0.88466 0.90428 -2.5122 1.966 -5.367 2.2142 l-0.036758 4.6262 l-2.3476 -0.016094 l0.036484 -4.5994 c-2.2324 -0.18141 -4.09 -0.92992 -5.3086 -2.1572 c-0.97334 -0.9804 -1.4991 -2.2306 -1.4804 -3.5202 l0.017129 -1.1737 l2.3474 0.03414 l-0.017012 1.1737 c-0.0095508 0.66232 0.26668 1.2959 0.79912 1.832 c0.98028 0.98734 2.6908 1.5237 4.8134 1.507 c2.1676 -0.01582 3.8956 -0.57064 4.8658 -1.5624 c0.50916 -0.5203 0.77322 -1.1346 0.76394 -1.7765 l-0.017012 -1.1737 z M88.925 9.649 c0.91776 0.9099 0.9102 2.226 0.89856 4.2182 c-0.00091796 0.14832 -0.0016992 0.302 -0.0023438 0.46118 c-0.0044532 1.1823 -0.0075976 2.0366 -0.13172 2.757 c-0.10568 0.6142 -0.34974 1.4995 -1.2436 2.0954 c-1.1321 0.75466 -2.8232 0.77168 -6.5282 0.8087 c-0.57862 0.0057618 -1.1122 0.010078 -1.6046 0.010078 c-2.9354 0 -4.411 -0.15537 -5.3538 -1.0922 c-0.98198 -0.9757 -0.97648 -2.4126 -0.96838 -4.5876 c0.0090234 -2.4268 0.014512 -3.8916 1.2447 -4.801 c1.0614 -0.7845 2.6028 -0.80516 5.9798 -0.85054 l0.67396 -0.0092774 c4.2088 -0.060156 5.9508 -0.085136 7.0354 0.99024 z M87.49099999999999 13.854199999999999 c0.006543 -1.1448 0.013457 -2.3288 -0.20864 -2.5488 c-0.27556 -0.27322 -1.5123 -0.33638 -3.1584 -0.33638 c-0.67736 0 -1.4242 0.010723 -2.2018 0.021836 l-0.67606 0.0092774 c-2.4194 0.032442 -4.1674 0.055976 -4.625 0.39406 c-0.2888 0.21346 -0.2935 1.4744 -0.29898 2.9346 c-0.0050976 1.3559 -0.0099414 2.6366 0.28016 2.9248 c0.4554 0.45254 2.9138 0.42782 5.2914 0.40428 c2.7302 -0.027206 4.7028 -0.046954 5.258 -0.4171 c0.32686 -0.2179 0.33104 -1.3516 0.33692 -2.9208 c0.00052734 -0.16074 0.0014453 -0.316 0.0023632 -0.46588 z M109.107 10.9648 l-13.59 0 l0 2.1824 l9.0599 0 l0 2.3476 l-9.0599 0 l0 4.5299 l-2.3477 0 l0 -11.407 l15.938 0 l0 2.3476 z M137.227 12.0424 c0 1.0081 -0.32878 1.759 -0.8114 2.2982 c0.48524 0.53376 0.8113 1.2642 0.8113 2.2318 c0 2.523 -2.0564 3.4388 -3.4388 3.4388 l-12.499 0 l0 -11.408 l12.237 0 c1.4875 0 3.7004 0.9158 3.7004 3.4388 z M134.438 17.4818 c0.21816 -0.12072 0.44116 -0.32318 0.44102 -0.90964 c0 -0.47164 -0.15969 -0.72696 -0.56946 -0.91072 c-0.3725 -0.16701 -0.77926 -0.18049 -0.78304 -0.18049 l-9.8895 0 l0 2.1822 l10.141 0 c0.1024 -0.0033984 0.40832 -0.041972 0.66036 -0.18139 z M134.438 12.952 c0.21816 -0.12072 0.44116 -0.32304 0.44116 -0.90964 c0 -0.47164 -0.15969 -0.72696 -0.56946 -0.91072 c-0.3725 -0.16701 -0.77926 -0.18049 -0.78304 -0.18049 l-9.8895 0 l0 2.1822 l10.14 0 c0.1024 -0.0033984 0.40832 -0.041972 0.66036 -0.18139 z M155.18499999999997 9.649 c0.91776 0.9099 0.9102 2.226 0.89856 4.2182 c-0.00091796 0.14832 -0.0016992 0.302 -0.0023438 0.46118 c-0.0044532 1.1823 -0.0075976 2.0366 -0.13172 2.757 c-0.10568 0.6142 -0.34974 1.4995 -1.2436 2.0954 c-1.1321 0.75466 -2.8232 0.77168 -6.5282 0.8087 c-0.57862 0.0057618 -1.1122 0.010078 -1.6046 0.010078 c-2.9354 0 -4.411 -0.15537 -5.3538 -1.0922 c-0.98198 -0.9757 -0.97648 -2.4126 -0.96838 -4.5876 c0.0090234 -2.4268 0.014512 -3.8916 1.2447 -4.801 c1.0614 -0.7845 2.6028 -0.80516 5.9798 -0.85054 l0.67396 -0.0092774 c4.2088 -0.060156 5.9508 -0.085136 7.0354 0.99024 z M153.75099999999998 13.854199999999999 c0.006543 -1.1448 0.013457 -2.3288 -0.20864 -2.5488 c-0.27556 -0.27322 -1.5123 -0.33638 -3.1584 -0.33638 c-0.67736 0 -1.4242 0.010723 -2.2018 0.021836 l-0.67606 0.0092774 c-2.4194 0.032442 -4.1674 0.055976 -4.625 0.39406 c-0.2888 0.21346 -0.2935 1.4744 -0.29898 2.9346 c-0.0050976 1.3559 -0.0099414 2.6366 0.28016 2.9248 c0.4554 0.45254 2.9138 0.42782 5.2914 0.40428 c2.7302 -0.027206 4.7028 -0.046954 5.258 -0.4171 c0.32686 -0.2179 0.33104 -1.3516 0.33692 -2.9208 c0.00052734 -0.16074 0.0014453 -0.316 0.0023632 -0.46588 z M174.36499999999998 9.649 c0.91776 0.9099 0.9102 2.226 0.89856 4.2182 c-0.00091796 0.14832 -0.0016992 0.302 -0.0023438 0.46118 c-0.0044532 1.1823 -0.0075976 2.0366 -0.13172 2.757 c-0.10568 0.6142 -0.34974 1.4995 -1.2436 2.0954 c-1.1321 0.75466 -2.8232 0.77168 -6.5282 0.8087 c-0.57862 0.0057618 -1.1122 0.010078 -1.6046 0.010078 c-2.9354 0 -4.411 -0.15537 -5.3538 -1.0922 c-0.98198 -0.9757 -0.97648 -2.4126 -0.96838 -4.5876 c0.0090234 -2.4268 0.014512 -3.8916 1.2447 -4.801 c1.0614 -0.7845 2.6028 -0.80516 5.9798 -0.85054 l0.67396 -0.0092774 c4.2088 -0.060156 5.9508 -0.085136 7.0354 0.99024 z M172.93099999999998 13.854199999999999 c0.006543 -1.1448 0.013457 -2.3288 -0.20864 -2.5488 c-0.27556 -0.27322 -1.5123 -0.33638 -3.1584 -0.33638 c-0.67736 0 -1.4242 0.010723 -2.2018 0.021836 l-0.67606 0.0092774 c-2.4194 0.032442 -4.1674 0.055976 -4.625 0.39406 c-0.2888 0.21346 -0.2935 1.4744 -0.29898 2.9346 c-0.0050976 1.3559 -0.0099414 2.6366 0.28016 2.9248 c0.4554 0.45254 2.9138 0.42782 5.2914 0.40428 c2.7302 -0.027206 4.7028 -0.046954 5.258 -0.4171 c0.32686 -0.2179 0.33104 -1.3516 0.33692 -2.9208 c0.00052734 -0.16074 0.0014453 -0.316 0.0023632 -0.46588 z M194.356 17.619 l0.034746 2.3244 l-1.1621 0.017402 c-0.18049 0.002754 -0.38464 0.0058984 -0.60738 0.0058984 c-1.6091 0 -4.1898 -0.15982 -5.8222 -1.768 c-0.77534 -0.7638 -1.2442 -1.7492 -1.4014 -2.9364 c-0.85432 0.12438 -1.7942 0.19199 -2.8226 0.19199 l-1.641 0 l0 4.4852 l-2.3246 0 l0 -11.295 l2.3246 0 l0 4.4853 l1.641 0 c4.7582 0 7.2478 -1.6252 7.2478 -3.2308 l0 -1.1623 l2.3246 0 l0 1.1622 c0 1.9109 -1.4137 3.8334 -4.469 4.8392 c0.06213 0.77546 0.30946 1.3688 0.75204 1.8049 c1.1652 1.1478 3.5954 1.1114 4.7634 1.0939 z M200.53799999999998 11.0046 c-0.21816 0.12059 -0.44118 0.32306 -0.44118 0.90966 c0 0.45724 0.14779 0.70718 0.52734 0.89108 c0.38386 0.18598 0.81196 0.19957 0.83354 0.2001 l8.5334 0.03336 c1.4828 0 3.6956 0.9158 3.6956 3.4388 s-2.0564 3.4388 -3.4388 3.4388 l-12.499 0 l0 -2.3477 l12.488 0 c0.1024 -0.0035352 0.40818 -0.04211 0.66022 -0.18152 c0.21828 -0.12072 0.44128 -0.32318 0.44128 -0.90964 c0 -0.45724 -0.14779 -0.70718 -0.52734 -0.89108 c-0.3827 -0.18547 -0.81038 -0.19947 -0.8343 -0.20012 l-8.5278 -0.03793 l0 0.0045703 c-1.4875 0 -3.7004 -0.9158 -3.7004 -3.4388 s2.0564 -3.4388 3.4388 -3.4388 l12.499 0 l0 2.3477 l-12.488 0 c-0.10229 0.0035352 -0.40834 0.04211 -0.6605 0.18152 z" fill="#111111"></path></g></svg>