<svg xmlns:xlink="http://www.w3.org/1999/xlink" xmlns="http://www.w3.org/2000/svg" viewBox="0 0 200 140.66462890725256" height="140.66462890725256" width="200" style="width: 200px; height: 140.665px; position: absolute; top: 50%; left: 50%; transform: translate(-50%, -50%) scale(0.684); z-index: 0; cursor: pointer;"><defs id="SvgjsDefs1276"></defs><g id="SvgjsG1277" featurekey="symbolFeature-0" transform="matrix(0.9999999237060605,0,0,0.9999999237060605,50,-13.999998931884846)" fill="#4C5D6D"><g xmlns="http://www.w3.org/2000/svg" fill="#4C5D6D"><path fill-rule="evenodd" clip-rule="evenodd" d="M41.97,14.424C40.582,14.17,39.26,14,38.109,14   C38.964,14,40.382,14.17,41.97,14.424z M61.273,14c-1.395,0-2.898,0.188-4.413,0.473C58.545,14.188,60.146,14,61.273,14z    M15.151,27.503c0.679,0.019,1.388,0.031,2.122,0.031c5.206,0,15.151-4.849,20.606-4.849c2.055,0,4.333,0.345,6.363,0.775v-2.624   c-2.03-0.43-4.309-0.776-6.363-0.776c-5.455,0-15.4,4.849-20.606,4.849c-0.733,0-1.442-0.012-2.122-0.036V27.503z M7.879,32.831   c2.412,0.424,5.545,0.764,9.394,0.764c5.206,0,15.151-4.849,20.606-4.849c2.055,0,4.333,0.345,6.363,0.776v-2.625   c-2.03-0.43-4.309-0.775-6.363-0.775c-5.455,0-15.4,4.848-20.606,4.848c-3.849,0-6.982-0.339-9.394-0.763V32.831z M7.879,38.891   c2.412,0.424,5.545,0.764,9.394,0.764c5.206,0,15.151-4.849,20.606-4.849c2.055,0,4.333,0.345,6.363,0.776v-2.625   c-2.03-0.43-4.309-0.775-6.363-0.775c-5.455,0-15.4,4.848-20.606,4.848c-3.849,0-6.982-0.339-9.394-0.763V38.891z M7.879,44.952   c2.412,0.424,5.545,0.764,9.394,0.764c5.206,0,15.151-4.849,20.606-4.849c2.055,0,4.333,0.346,6.363,0.776v-2.625   c-2.03-0.43-4.309-0.775-6.363-0.775c-5.455,0-15.4,4.848-20.606,4.848c-3.849,0-6.982-0.339-9.394-0.763V44.952z M7.879,51.012   c2.412,0.424,5.545,0.764,9.394,0.764c5.206,0,15.151-4.848,20.606-4.848c2.055,0,4.333,0.346,6.363,0.776v-2.625   c-2.03-0.43-4.309-0.775-6.363-0.775c-5.455,0-15.4,4.849-20.606,4.849c-3.849,0-6.982-0.34-9.394-0.764V51.012z M31.515,51.551   c-5.006,1.438-10.715,3.662-14.242,3.662c-3.849,0-6.982-0.34-9.394-0.764v2.623c2.412,0.424,5.545,0.764,9.394,0.764   c3.527,0,9.236-2.225,14.242-3.66V51.551z M7.879,63.133c2.412,0.424,5.545,0.764,9.394,0.764c5.206,0,15.151-4.848,20.606-4.848   c2.055,0,4.333,0.346,6.363,0.775v-2.625c-2.03-0.43-4.309-0.775-6.363-0.775c-5.455,0-15.4,4.85-20.606,4.85   c-3.849,0-6.982-0.34-9.394-0.764V63.133z M7.879,69.193c2.412,0.424,5.545,0.764,9.394,0.764c5.206,0,15.151-4.848,20.606-4.848   c2.055,0,4.333,0.346,6.363,0.775V63.26c-2.03-0.43-4.309-0.775-6.363-0.775c-5.455,0-15.4,4.85-20.606,4.85   c-3.849,0-6.982-0.34-9.394-0.764V69.193z M90.909,26.77v-2.624c-2.412,0.424-5.546,0.764-9.394,0.764   c-5.207,0-15.152-4.849-20.606-4.849c-2.055,0-4.333,0.346-6.364,0.776v2.624c2.031-0.43,4.31-0.775,6.364-0.775   c5.454,0,15.399,4.849,20.606,4.849C85.363,27.534,88.497,27.194,90.909,26.77z M90.909,32.831v-2.624   c-2.412,0.424-5.546,0.763-9.394,0.763c-5.207,0-15.152-4.848-20.606-4.848c-2.055,0-4.333,0.345-6.364,0.775v2.625   c2.031-0.431,4.31-0.776,6.364-0.776c5.454,0,15.399,4.849,20.606,4.849C85.363,33.594,88.497,33.255,90.909,32.831z    M90.909,38.891v-2.624c-2.412,0.424-5.546,0.763-9.394,0.763c-5.207,0-15.152-4.848-20.606-4.848   c-2.055,0-4.333,0.345-6.364,0.775v2.625c2.031-0.431,4.31-0.776,6.364-0.776c5.454,0,15.399,4.849,20.606,4.849   C85.363,39.655,88.497,39.315,90.909,38.891z M60.909,38.243v2.624c5.454,0,15.399,4.849,20.606,4.849   c3.848,0,6.981-0.339,9.394-0.764v-2.624c-2.412,0.424-5.546,0.763-9.394,0.763C76.309,43.091,66.363,38.243,60.909,38.243z    M90.909,51.012v-2.624c-2.412,0.424-5.546,0.764-9.394,0.764c-5.207,0-15.152-4.849-20.606-4.849   c-2.055,0-4.333,0.345-6.364,0.775v2.625c2.031-0.43,4.31-0.776,6.364-0.776c5.454,0,15.399,4.848,20.606,4.848   C85.363,51.775,88.497,51.436,90.909,51.012z M90.909,57.072v-2.623c-2.412,0.424-5.546,0.764-9.394,0.764   c-5.207,0-15.152-4.849-20.606-4.849c-2.055,0-4.333,0.346-6.364,0.775v2.625c2.031-0.43,4.31-0.775,6.364-0.775   c5.454,0,15.399,4.848,20.606,4.848C85.363,57.836,88.497,57.496,90.909,57.072z M90.909,63.133V60.51   c-2.412,0.424-5.546,0.764-9.394,0.764c-5.207,0-15.152-4.85-20.606-4.85c-2.055,0-4.333,0.346-6.364,0.775v2.625   c2.031-0.43,4.31-0.775,6.364-0.775c5.454,0,15.399,4.848,20.606,4.848C85.363,63.896,88.497,63.557,90.909,63.133z M73.939,68.363   V65.74c-4.612-1.42-9.673-3.256-13.03-3.256c-2.055,0-4.333,0.346-6.364,0.775v2.625c2.031-0.43,4.31-0.775,6.364-0.775   C64.267,65.109,69.327,66.951,73.939,68.363z M38.109,14c-6.061,0-14.545,4.849-21.976,4.849c-4.545,0-9.842-0.758-14.242-2.273   v9.606C0.812,26.418,0,27.388,0,28.545v55.757c0,1.34,1.085,2.424,2.424,2.424h38.788c0.667,0,1.212-0.545,1.212-1.211l2.424,1.211   h10.303l2.425-1.211c0,0.666,0.545,1.211,1.212,1.211h38.788c1.339,0,2.424-1.084,2.424-2.424V28.545   c0-1.339-1.085-2.424-2.424-2.424h-0.073v-9.546c-4.546,1.515-9.854,2.273-14.242,2.273c-0.46,0-2.582,0-3.637-0.303   c-2.425-0.455-5.006-1.212-7.127-1.97C68.715,15.515,64.775,14,61.285,14h-0.012c-1.128,0-2.729,0.188-4.413,0.473   c-2.702,0.461-5.624,1.17-7.157,1.728c-1.57-0.582-4.909-1.321-7.733-1.776C40.382,14.17,38.964,14,38.109,14z M48.412,17.788   v53.636c-2.121-0.758-7.733-1.818-10.46-1.818c-6.061,0-15.297,4.85-21.818,4.85c-4.085,0-8.63-0.455-12.424-1.818V19.152   c3.939,1.061,8.788,1.667,12.728,1.667c6.364,0,15.915-4.849,21.672-4.849c1.212,0,2.667,0.169,4.146,0.418   C44.376,16.77,46.497,17.333,48.412,17.788z M48.412,73.314v1.746c-2.121-0.758-7.733-1.818-10.46-1.818   c-6.061,0-15.297,4.85-21.818,4.85c-4.085,0-8.63-0.455-12.424-1.818v-1.758c4.14,1.109,8.794,1.908,12.885,1.908   c6.207,0,15.152-4.848,21.515-4.848C41.509,71.576,44.679,72.254,48.412,73.314z M48.412,76.951v1.746   c-2.121-0.758-7.733-1.818-10.46-1.818c-6.061,0-15.297,4.848-21.818,4.848c-4.085,0-8.63-0.453-12.424-1.816v-1.758   c4.14,1.107,8.794,1.908,12.885,1.908c6.97,0,14.388-4.848,21.515-4.848C41.509,75.213,44.679,75.891,48.412,76.951z    M82.801,20.818c3.793,0,9.854-0.909,12.884-1.667v53.485C91.745,74,87.2,74.455,83.104,74.455c-6.971,0-15.455-4.85-21.818-4.85   c-2.57,0-8.328,1.061-10.303,1.818V17.788c1.908-0.455,3.987-1.019,6.054-1.4c1.448-0.249,2.873-0.418,4.079-0.418h0.023   C66.896,15.97,76.437,20.818,82.801,20.818z M95.685,74.504v1.77c-3.939,1.363-8.484,1.818-12.581,1.818   c-6.971,0-15.455-4.85-21.818-4.85c-2.57,0-8.328,1.061-10.303,1.818v-1.758c3.611-1.055,6.77-1.727,10.156-1.727   c6.364,0,15.298,4.848,21.662,4.848C86.77,76.424,91.437,75.619,95.685,74.504z M95.685,78.139v1.771   c-3.939,1.363-8.484,1.816-12.581,1.816c-6.971,0-15.455-4.848-21.818-4.848c-2.57,0-8.328,1.061-10.303,1.818v-1.758   c3.611-1.055,6.77-1.727,10.156-1.727c7.115,0,14.691,4.848,21.662,4.848C86.77,80.061,91.437,79.254,95.685,78.139z" fill="#4C5D6D"></path></g></g><g id="SvgjsG1278" featurekey="fiAKjI-0" transform="matrix(1.7500875230691049,0,0,1.7500875230691049,-1.4700737864202116,82.46447147549074)" fill="#4C5D6D"><path d="M6.46 16.18 l-2.52 0 l0 3.82 l-3.1 0 l0 -13.7 l5.9 0 c3.12 0 4.88 2.18 4.88 4.84 c0 2.8 -1.94 5.04 -5.16 5.04 z M6.28 9.14 l-2.34 0 l0 4.2 l2.44 0 c1.32 0 2.12 -0.88 2.12 -2.12 s-0.78 -2.08 -2.22 -2.08 z M18.82 20.24 c-3.84 0 -5.94 -2.28 -5.94 -5.68 l0 -8.26 l3.1 0 l0 7.84 c0 2.08 1.02 3.22 2.82 3.22 c1.78 0 2.78 -1.14 2.78 -3.22 l0 -7.84 l3.1 0 l0 8.26 c0 3.4 -2.08 5.68 -5.86 5.68 z M29.380000000000003 12.68 l4.88 -6.38 l3.62 0 l-5.44 6.84 l5.6 6.86 l-4.02 0 l-4.64 -5.84 l0 5.84 l-3.1 0 l0 -13.7 l3.1 0 l0 6.38 z M41.92 20 l-3.1 0 l0 -13.7 l3.1 0 l0 13.7 z M45.88 11.12 l-2.3 0 l-0.32 -4.82 l3 0 z M52.620000000000005 20.26 c-3.46 0 -5.36 -1.72 -5.54 -4.54 l3.1 0 c0.06 1.04 0.66 2.08 2.52 2.08 c1.56 0 2.36 -0.62 2.36 -1.48 c0 -1.06 -1.34 -1.34 -2.9 -1.68 c-2.18 -0.52 -4.84 -1.16 -4.84 -4.42 c0 -2.4 1.86 -4.18 5.14 -4.18 c3.34 0 5.18 1.82 5.38 4.5 l-3.12 0 c-0.06 -1.1 -0.66 -1.98 -2.34 -1.98 c-1.24 0 -2.06 0.5 -2.06 1.4 c0 1.16 1.36 1.48 2.92 1.84 c2.24 0.5 4.92 1.06 4.92 4.14 c0 2.5 -1.96 4.32 -5.54 4.32 z M68.32 20.26 c-3.46 0 -5.36 -1.72 -5.54 -4.54 l3.1 0 c0.06 1.04 0.66 2.08 2.52 2.08 c1.56 0 2.36 -0.62 2.36 -1.48 c0 -1.06 -1.34 -1.34 -2.9 -1.68 c-2.18 -0.52 -4.84 -1.16 -4.84 -4.42 c0 -2.4 1.86 -4.18 5.14 -4.18 c3.34 0 5.18 1.82 5.38 4.5 l-3.12 0 c-0.06 -1.1 -0.66 -1.98 -2.34 -1.98 c-1.24 0 -2.06 0.5 -2.06 1.4 c0 1.16 1.36 1.48 2.92 1.84 c2.24 0.5 4.92 1.06 4.92 4.14 c0 2.5 -1.96 4.32 -5.54 4.32 z M84 20 l0 -5.36 l-5.8 0 l0 5.36 l-3.1 0 l0 -13.7 l3.1 0 l0 5.5 l5.8 0 l0 -5.5 l3.1 0 l0 13.7 l-3.1 0 z M95.72 20.28 c-4 0 -7.26 -3.06 -7.26 -7.12 c0 -4.08 3.26 -7.14 7.26 -7.14 c4.1 0 7.26 3.06 7.26 7.12 c0 4.08 -3.16 7.14 -7.26 7.14 z M95.72 17.4 c2.32 0 4.1 -1.84 4.1 -4.26 c0 -2.38 -1.78 -4.24 -4.1 -4.24 s-4.1 1.86 -4.1 4.26 s1.78 4.24 4.1 4.24 z M109.96 16.18 l-2.52 0 l0 3.82 l-3.1 0 l0 -13.7 l5.9 0 c3.12 0 4.88 2.18 4.88 4.84 c0 2.8 -1.94 5.04 -5.16 5.04 z M109.78 9.14 l-2.34 0 l0 4.2 l2.44 0 c1.32 0 2.12 -0.88 2.12 -2.12 s-0.78 -2.08 -2.22 -2.08 z" fill="#4C5D6D"></path></g><g id="SvgjsG1279" featurekey="sloganFeature-0" transform="matrix(0.8794880836114892,0,0,0.8794880836114892,18.99738370210723,122.89896894730433)" fill="#4C5D6D"><path d="M1.14 13 c0 -4.04 3.18 -7.2 7.18 -7.2 c1.68 0 3.28 0.56 4.7 1.64 l-0.9 1.4 c-1.18 -0.9 -2.4 -1.34 -3.8 -1.34 c-3.02 0 -5.38 2.42 -5.38 5.5 s2.38 5.5 5.38 5.5 c1.52 0 2.82 -0.48 3.8 -1.42 l0.92 1.38 c-1.22 1.1 -2.94 1.74 -4.72 1.74 c-4 0 -7.18 -3.18 -7.18 -7.2 z M18.186999999999998 20 l0 -14 l1.8 0 l0 14 l-1.8 0 z M34.653999999999996 7.720000000000001 l-4.08 0 l0 12.28 l-1.8 0 l0 -12.28 l-4.1 0 l0.12 -1.72 l9.74 0 z M49.821 6 l-4.94 7.78 l0 6.22 l-1.8 0 l0 -6.2 l-4.96 -7.8 l2.04 0 l3.82 6.02 l3.8 -6.02 l2.04 0 z M70.515 20.2 c-4 0 -7.18 -3.2 -7.18 -7.2 s3.18 -7.2 7.18 -7.2 s7.18 3.2 7.18 7.2 s-3.18 7.2 -7.18 7.2 z M70.515 18.48 c3.04 0 5.32 -2.38 5.32 -5.48 s-2.28 -5.48 -5.32 -5.48 c-3.06 0 -5.34 2.38 -5.34 5.48 s2.28 5.48 5.34 5.48 z M84.882 7.720000000000001 l0 4.32 l4.28 0 l0 1.72 l-4.28 0 l0 6.24 l-1.8 0 l0 -14 l7.96 0 l0.12 1.72 l-6.28 0 z M113.276 11.16 c1.76 0.64 2.78 2.24 2.78 4.28 c0 2.38 -1.18 4.48 -5 4.56 l-5.38 0 l0 -14 l5.6 0 c2.46 0 3.14 1.8 3.14 2.94 c0 1 -0.6 1.8 -1.14 2.22 z M111.056 7.619999999999999 l-3.58 0 l0 3.12 l3.2 0 c1.42 0 1.98 -0.72 1.98 -1.58 c0 -0.62 -0.4 -1.54 -1.6 -1.54 z M110.896 18.28 c2.32 0 3.32 -1.16 3.32 -2.84 c0 -1.88 -1.04 -3.2 -3.28 -3.2 l-3.46 0 l0 6.04 l3.42 0 z M127.803 20.2 c-4 0 -7.18 -3.2 -7.18 -7.2 s3.18 -7.2 7.18 -7.2 s7.18 3.2 7.18 7.2 s-3.18 7.2 -7.18 7.2 z M127.803 18.48 c3.04 0 5.32 -2.38 5.32 -5.48 s-2.28 -5.48 -5.32 -5.48 c-3.06 0 -5.34 2.38 -5.34 5.48 s2.28 5.48 5.34 5.48 z M146.99 20.2 c-4 0 -7.18 -3.2 -7.18 -7.2 s3.18 -7.2 7.18 -7.2 s7.18 3.2 7.18 7.2 s-3.18 7.2 -7.18 7.2 z M146.99 18.48 c3.04 0 5.32 -2.38 5.32 -5.48 s-2.28 -5.48 -5.32 -5.48 c-3.06 0 -5.34 2.38 -5.34 5.48 s2.28 5.48 5.34 5.48 z M167.73700000000002 20 l-4.14 -6.38 l-2.24 2.78 l0 3.6 l-1.8 0 l0 -14 l1.8 0 l0 7.62 l6.22 -7.62 l2.18 0 l-4.94 6.12 l5.02 7.88 l-2.1 0 z M173.96400000000003 18.54 c0.88 0.82 2.7 1.66 4.52 1.66 c2.8 0 4.58 -1.44 4.58 -3.7 c0 -1.84 -0.88 -2.92 -3.92 -4.64 c-2.32 -1.34 -2.88 -1.78 -2.88 -2.66 c0 -0.94 0.88 -1.68 2.36 -1.68 c0.86 0 2 0.38 2.66 0.8 l0.96 -1.44 c-0.94 -0.62 -2.42 -1.08 -3.6 -1.08 c-2.58 0 -4.3 1.48 -4.3 3.42 c0 1.72 0.86 2.58 3.5 4.02 c2.34 1.28 3.3 2.22 3.3 3.24 c0 1.2 -1.04 1.92 -2.66 1.92 c-1.4 0 -2.8 -0.66 -3.5 -1.3 z" fill="#4C5D6D"></path></g></svg>